<!--?xml version="1.0" encoding="UTF-8" standalone="no"?-->

<!-- Generated by graphviz version 2.28.0 (20110507.0327)
 -->
<!-- Title: _anonymous_0 Pages: 1 -->
<svg width="400pt" height="394pt" viewBox="0.00 0.00 400.00 394.00" xmlns="http://www.w3.org/2000/svg" xmlns:xlink="http://www.w3.org/1999/xlink">
<g id="graph1" class="graph" transform="scale(1 1) rotate(0) translate(4 390)">
<title>_anonymous_0</title>
<polygon fill="white" stroke="white" points="-4,5 -4,-390 397,-390 397,5 -4,5"></polygon>
<!-- Bern -->
<g id="node1" class="node"><title>Bern</title>
<polygon fill="forestgreen" stroke="black" stroke-width="0" points="392,-271.5 226,-271.5 226,-228.5 392,-228.5 392,-271.5"></polygon>
<text text-anchor="middle" x="309" y="-245.8" font-family="Arial" font-size="14.00" fill="white">Bern</text>
</g>
<!-- Bienne -->
<g id="node3" class="node"><title>Bienne</title>
<polygon fill="forestgreen" stroke="black" stroke-width="0" points="298,-385.5 132,-385.5 132,-342.5 298,-342.5 298,-385.5"></polygon>
<text text-anchor="middle" x="215" y="-359.8" font-family="Arial" font-size="14.00" fill="white">Bienne</text>
</g>
<!-- Bern&#45;&gt;Bienne -->
<g id="edge2" class="edge"><title>Bern-&gt;Bienne</title>
<path fill="none" stroke="black" d="M291.759,-271.543C276.945,-289.193 255.431,-314.826 238.947,-334.468"></path>
<polygon fill="black" stroke="black" points="236.198,-332.299 232.45,-342.208 241.56,-336.799 236.198,-332.299"></polygon>
<text text-anchor="middle" x="297.003" y="-311.2" font-family="Arial" font-size="14.00">42 km</text>
<text text-anchor="middle" x="297.003" y="-294.4" font-family="Arial" font-size="14.00">32 min</text>
</g>
<!-- Neuchâtel -->
<g id="node5" class="node"><title>Neuchâtel</title>
<polygon fill="forestgreen" stroke="black" stroke-width="0" points="166,-271.5 0,-271.5 0,-228.5 166,-228.5 166,-271.5"></polygon>
<text text-anchor="middle" x="83" y="-245.8" font-family="Arial" font-size="14.00" fill="white">Neuchâtel</text>
</g>
<!-- Neuchâtel&#45;&gt;Bern -->
<g id="edge5" class="edge"><title>Neuchâtel-&gt;Bern</title>
<path fill="none" stroke="black" d="M166.191,-250C182.346,-250 199.377,-250 215.829,-250"></path>
<polygon fill="black" stroke="black" points="215.985,-253.5 225.985,-250 215.985,-246.5 215.985,-253.5"></polygon>
<text text-anchor="middle" x="196" y="-234.4" font-family="Arial" font-size="14.00">47 km</text>
<text text-anchor="middle" x="196" y="-217.6" font-family="Arial" font-size="14.00">40 min</text>
</g>
<!-- Neuchâtel&#45;&gt;Bienne -->
<g id="edge7" class="edge"><title>Neuchâtel-&gt;Bienne</title>
<path fill="none" stroke="black" d="M107.211,-271.543C128.383,-289.507 159.301,-315.74 182.601,-335.51"></path>
<polygon fill="black" stroke="black" points="180.606,-338.407 190.496,-342.208 185.135,-333.07 180.606,-338.407"></polygon>
<text text-anchor="middle" x="190.003" y="-311.2" font-family="Arial" font-size="14.00">32 km</text>
<text text-anchor="middle" x="190.003" y="-294.4" font-family="Arial" font-size="14.00">27 min</text>
</g>
<!-- Yverdon&#45;les&#45;Bains -->
<g id="node8" class="node"><title>Yverdon-les-Bains</title>
<polygon fill="forestgreen" stroke="black" stroke-width="0" points="273,-157.5 107,-157.5 107,-114.5 273,-114.5 273,-157.5"></polygon>
<text text-anchor="middle" x="190" y="-131.8" font-family="Arial" font-size="14.00" fill="white">Yverdon-les-Bains</text>
</g>
<!-- Yverdon&#45;les&#45;Bains&#45;&gt;Bern -->
<g id="edge9" class="edge"><title>Yverdon-les-Bains-&gt;Bern</title>
<path fill="none" stroke="black" d="M207.883,-157.724C226.507,-179.306 252.994,-210 252.994,-210 252.994,-210 261.044,-215.606 271.04,-222.566"></path>
<polygon fill="black" stroke="black" points="269.151,-225.516 279.357,-228.358 273.151,-219.771 269.151,-225.516"></polygon>
<text text-anchor="middle" x="274.003" y="-197.2" font-family="Arial" font-size="14.00">70 km</text>
<text text-anchor="middle" x="274.003" y="-180.4" font-family="Arial" font-size="14.00">43 min</text>
</g>
<!-- Yverdon&#45;les&#45;Bains&#45;&gt;Neuchâtel -->
<g id="edge11" class="edge"><title>Yverdon-les-Bains-&gt;Neuchâtel</title>
<path fill="none" stroke="black" d="M170.375,-157.543C153.437,-175.271 128.805,-201.054 110.009,-220.729"></path>
<polygon fill="black" stroke="black" points="107.241,-218.56 102.863,-228.208 112.302,-223.396 107.241,-218.56"></polygon>
<text text-anchor="middle" x="174.003" y="-197.2" font-family="Arial" font-size="14.00">39 km</text>
<text text-anchor="middle" x="174.003" y="-180.4" font-family="Arial" font-size="14.00">24 min</text>
</g>
<!-- Lausanne -->
<g id="node11" class="node"><title>Lausanne</title>
<polygon fill="forestgreen" stroke="black" stroke-width="0" points="348,-43.5 182,-43.5 182,-0.5 348,-0.5 348,-43.5"></polygon>
<text text-anchor="middle" x="265" y="-17.8" font-family="Arial" font-size="14.00" fill="white">Lausanne</text>
</g>
<!-- Lausanne&#45;&gt;Bern -->
<g id="edge13" class="edge"><title>Lausanne-&gt;Bern</title>
<path fill="none" stroke="black" d="M275.703,-43.8701C280.458,-53.1426 285,-62 285,-62 285,-62 298.209,-164.916 305.028,-218.05"></path>
<polygon fill="black" stroke="black" points="301.595,-218.8 306.34,-228.273 308.538,-217.909 301.595,-218.8"></polygon>
<text text-anchor="middle" x="319.95" y="-140.2" font-family="Arial" font-size="14.00">100 km</text>
<text text-anchor="middle" x="319.95" y="-123.4" font-family="Arial" font-size="14.00">58 min</text>
</g>
<!-- Lausanne&#45;&gt;Yverdon&#45;les&#45;Bains -->
<g id="edge15" class="edge"><title>Lausanne-&gt;Yverdon-les-Bains</title>
<path fill="none" stroke="black" d="M251.244,-43.5425C239.582,-60.9575 222.716,-86.1442 209.635,-105.679"></path>
<polygon fill="black" stroke="black" points="206.579,-103.952 203.923,-114.208 212.395,-107.847 206.579,-103.952"></polygon>
<text text-anchor="middle" x="260.003" y="-83.2" font-family="Arial" font-size="14.00">32 km</text>
<text text-anchor="middle" x="260.003" y="-66.4" font-family="Arial" font-size="14.00">20 min</text>
</g>
</g>
</svg>
